<?xml version="1.0" standalone="no"?>
<!DOCTYPE svg PUBLIC "-//W3C//DTD SVG 20010904//EN"
 "http://www.w3.org/TR/2001/REC-SVG-20010904/DTD/svg10.dtd">
<svg version="1.0" xmlns="http://www.w3.org/2000/svg"
 width="377.000000pt" height="325.000000pt" viewBox="0 0 377.000000 325.000000"
 preserveAspectRatio="xMidYMid meet">

<g transform="translate(0.000000,325.000000) scale(0.100000,-0.100000)"
fill="#000000" stroke="none">
<path d="M0 3223 c1 -61 32 -173 71 -252 30 -62 60 -103 113 -156 86 -87 171
-136 291 -169 l90 -25 -282 0 -283 -1 0 -27 c0 -52 28 -159 58 -224 81 -178
248 -312 437 -353 l70 -14 -166 -1 c-206 -1 -254 -13 -320 -80 -77 -76 -79
-90 -79 -546 0 -456 2 -470 79 -546 66 -67 114 -79 320 -80 124 -1 155 -3 122
-10 -281 -55 -485 -272 -517 -548 l-7 -61 284 -1 284 0 -80 -23 c-96 -27 -141
-46 -192 -80 l-38 -26 373 0 c204 0 372 2 372 5 0 14 -139 78 -215 99 l-90 25
283 0 282 1 0 28 c-1 52 -30 165 -58 226 -84 177 -250 310 -437 350 l-70 14
166 1 c206 1 254 13 320 80 79 78 79 77 79 663 l0 508 -282 1 c-191 1 -269 4
-239 10 281 55 485 272 517 548 l7 61 -284 1 -284 0 82 23 c246 68 412 236
468 476 8 36 15 80 15 98 l0 32 -630 0 -630 0 0 -27z"/>
<path d="M1558 3234 c41 -28 128 -64 193 -78 61 -13 50 -14 -215 -15 l-279 -1
7 -62 c10 -86 55 -212 100 -281 51 -77 161 -176 238 -215 176 -88 374 -88 557
0 97 47 226 178 274 278 33 71 67 198 67 255 l0 25 -277 1 -278 0 70 18 c73
18 149 49 187 75 21 15 -8 16 -322 16 -314 0 -343 -1 -322 -16z"/>
<path d="M2515 3198 c9 -70 49 -190 82 -246 85 -145 247 -259 421 -297 51 -12
26 -13 -225 -14 l-283 -1 0 -27 c1 -61 32 -173 71 -253 58 -118 163 -222 280
-278 110 -52 174 -67 289 -66 315 4 580 245 616 562 l7 62 -284 1 c-270 1
-281 2 -219 15 116 25 223 85 310 172 110 110 168 225 185 366 l7 56 -632 0
-632 0 7 -52z"/>
<path d="M1770 1246 c-86 -18 -161 -49 -226 -92 -80 -53 -176 -162 -217 -246
-33 -68 -67 -195 -67 -253 l0 -25 278 -1 277 0 -70 -18 c-243 -60 -419 -241
-469 -484 -9 -42 -16 -88 -16 -102 l0 -25 620 0 620 0 0 33 c0 55 -27 161 -58
228 -81 177 -246 312 -432 353 -62 13 -52 14 214 15 l279 1 -7 64 c-8 79 -38
174 -79 246 -44 80 -178 208 -257 247 -122 61 -272 83 -390 59z"/>
<path d="M3054 751 c-287 -45 -508 -274 -540 -558 l-7 -63 284 -1 c270 -1 281
-2 219 -15 -64 -14 -186 -67 -225 -98 -18 -14 11 -15 353 -16 204 0 372 2 372
4 0 9 -97 63 -143 81 -26 10 -73 24 -105 30 -51 12 -26 13 226 14 l282 1 0 33
c0 57 -38 184 -77 260 -55 106 -166 213 -274 265 -46 22 -104 44 -129 50 -67
16 -178 22 -236 13z"/>
</g>
</svg>
