<?xml version="1.0" standalone="no"?>
<!DOCTYPE svg PUBLIC "-//W3C//DTD SVG 20010904//EN"
 "http://www.w3.org/TR/2001/REC-SVG-20010904/DTD/svg10.dtd">
<svg version="1.0" xmlns="http://www.w3.org/2000/svg"
 width="377.000000pt" height="325.000000pt" viewBox="0 0 377.000000 325.000000"
 preserveAspectRatio="xMidYMid meet">

<g transform="translate(0.000000,325.000000) scale(0.100000,-0.100000)"
fill="#000000" stroke="none">
<path d="M260 3245 c0 -14 139 -78 215 -99 l90 -25 -282 0 -283 -1 0 -27 c0
-52 28 -159 58 -224 81 -178 248 -312 437 -353 l70 -14 -166 -1 c-206 -1 -254
-13 -320 -80 -77 -76 -79 -90 -79 -546 0 -456 2 -470 79 -546 66 -67 114 -79
320 -80 124 -1 155 -3 122 -10 -281 -55 -485 -272 -517 -548 l-7 -61 284 -1
284 0 -80 -23 c-103 -29 -141 -46 -212 -94 -147 -100 -249 -270 -269 -449 l-7
-63 633 0 633 0 -7 64 c-14 134 -79 268 -181 372 -84 85 -170 135 -290 168
l-90 25 283 0 282 1 0 28 c-1 52 -30 165 -58 226 -84 177 -250 310 -437 350
l-70 14 166 1 c206 1 254 13 320 80 79 78 79 77 79 663 l0 508 -282 1 c-191 1
-269 4 -239 10 281 55 485 272 517 548 l7 61 -284 1 -284 0 82 23 c77 21 208
79 219 98 3 4 -162 8 -365 8 -204 0 -371 -2 -371 -5z"/>
<path d="M1265 3193 c8 -66 39 -172 65 -223 79 -156 248 -286 420 -324 62 -13
52 -14 -214 -15 l-279 -1 7 -62 c10 -86 55 -212 100 -281 51 -77 161 -176 238
-215 176 -88 374 -88 557 0 97 47 226 178 274 278 33 71 67 198 67 255 l0 25
-277 1 -278 0 73 18 c256 63 449 281 478 539 l7 62 -623 0 -622 0 7 -57z"/>
<path d="M2800 3246 c0 -17 132 -73 218 -91 51 -12 26 -13 -225 -14 l-283 -1
0 -27 c1 -61 32 -173 71 -253 58 -118 163 -222 280 -278 110 -52 174 -67 289
-66 315 4 580 245 616 562 l7 62 -284 1 c-270 1 -281 2 -219 15 36 8 101 32
145 53 l80 39 -347 1 c-192 1 -348 -1 -348 -3z"/>
<path d="M3054 1251 c-287 -45 -508 -274 -540 -558 l-7 -63 284 -1 c269 -1
280 -2 219 -15 -36 -8 -103 -33 -150 -55 -114 -56 -228 -169 -282 -279 -34
-70 -68 -196 -68 -255 l0 -25 631 0 632 0 -7 64 c-27 269 -231 492 -504 551
-51 12 -26 13 226 14 l282 1 0 33 c0 57 -38 184 -77 260 -55 106 -166 213
-274 265 -46 22 -104 44 -129 50 -67 16 -178 22 -236 13z"/>
<path d="M1770 736 c-86 -18 -161 -49 -226 -92 -80 -53 -176 -162 -217 -246
-33 -68 -67 -195 -67 -253 l0 -25 278 -1 277 0 -70 -18 c-72 -18 -165 -57
-200 -85 -18 -14 9 -15 335 -15 325 0 353 1 335 15 -37 30 -140 74 -205 88
-62 13 -52 14 214 15 l279 1 -7 64 c-8 79 -38 174 -79 246 -44 80 -178 208
-257 247 -122 61 -272 83 -390 59z"/>
</g>
</svg>
